<svg width="96" height="96" viewBox="0 0 96 96" fill="none" xmlns="http://www.w3.org/2000/svg">
  <defs>
    <linearGradient id="pinGrad" x1="16" y1="12" x2="80" y2="84" gradientUnits="userSpaceOnUse">
      <stop stop-color="#2AA5FF"/>
      <stop offset="1" stop-color="#0E47CF"/>
    </linearGradient>
  </defs>
  <path d="M48 8C30.3 8 16 22.3 16 40C16 62.5 43.4 82.8 46.2 84.9C47.3 85.7 48.8 85.7 49.9 84.9C52.6 82.8 80 62.5 80 40C80 22.3 65.7 8 48 8Z" fill="url(#pinGrad)"/>
  <circle cx="48" cy="40" r="22" fill="#F8FAFC" opacity="0.96"/>
  <path d="M40 27C40 25.9 40.9 25 42 25H48V49H64C65.4 49 66.1 50.7 65.1 51.7L50.1 66.7C48.9 67.9 47 67.9 45.8 66.7L30.8 51.7C29.8 50.7 30.5 49 31.9 49H40V27Z" fill="#157AFF"/>
</svg>
